<svg xmlns="http://www.w3.org/2000/svg" version="1.1" xmlns:xlink="http://www.w3.org/1999/xlink" viewBox="0 0 200 200"><rect width="200" height="200" fill="url('#gradient')"></rect><defs><linearGradient id="gradient" gradientTransform="rotate(45 0.5 0.5)"><stop offset="0%" stop-color="#000000"></stop><stop offset="100%" stop-color="#000000"></stop></linearGradient></defs><g><g fill="#fa4529" transform="matrix(3.1889273356401384,0,0,3.1889273356401384,17.56661979457087,121.04848166271064)" stroke="#fa4529" stroke-width="0.1"><path d="M9.08-7.79L3.74-5.95L9.08-4.15L9.08-1.15L0.45-4.67L0.45-7.27L9.08-10.78L9.08-7.79ZM16.93-4.46L16.93-14.22L20.35-14.22L20.35-4.46Q20.35-3.11 19.72-2.04Q19.09-0.98 17.96-0.39Q16.84 0.20 15.45 0.20L15.45 0.20Q13.13 0.20 11.84-0.98Q10.55-2.15 10.55-4.30L10.55-4.30L13.98-4.30Q13.98-3.32 14.32-2.88Q14.66-2.44 15.45-2.44L15.45-2.44Q16.16-2.44 16.55-2.97Q16.93-3.51 16.93-4.46L16.93-4.46ZM30.61-4.81L34.01-4.81Q33.95-3.33 33.21-2.19Q32.48-1.05 31.16-0.43Q29.83 0.20 28.13 0.20L28.13 0.20Q25.33 0.20 23.72-1.63Q22.11-3.46 22.11-6.79L22.11-6.79L22.11-7.49Q22.11-9.58 22.84-11.15Q23.56-12.71 24.93-13.57Q26.30-14.42 28.10-14.42L28.10-14.42Q30.68-14.42 32.26-13.06Q33.83-11.70 34.04-9.31L34.04-9.31L30.63-9.31Q30.59-10.61 29.97-11.17Q29.36-11.74 28.10-11.74L28.10-11.74Q26.82-11.74 26.22-10.78Q25.63-9.82 25.60-7.72L25.60-7.72L25.60-6.72Q25.60-4.44 26.17-3.47Q26.74-2.49 28.13-2.49L28.13-2.49Q29.32-2.49 29.94-3.05Q30.57-3.60 30.61-4.81L30.61-4.81ZM41.47-14.22L36.61 1.22L34.28 1.22L39.13-14.22L41.47-14.22ZM42.67-4.13L47.98-5.98L42.67-7.78L42.67-10.77L51.25-7.26L51.25-4.66L42.67-1.14L42.67-4.13Z"></path></g></g></svg>